<svg width="294" height="236" viewBox="0 0 294 236" fill="none" xmlns="http://www.w3.org/2000/svg">
<path d="M21.7621 3.04847C16.633 3.04847 16.775 -1.56059 6.80216 3.04847C-3.17071 7.65753 1.67303 217.831 6.80216 228.892C11.9313 239.954 36.4846 233.501 48.1201 228.892C66.8794 226.588 108.387 223.361 124.345 228.892C144.291 235.806 197.72 226.588 202.706 228.892C206.696 230.736 271.036 240.553 285.342 215.065C299.648 189.577 290.471 16.8756 285.342 7.65753C280.213 -1.56055 271.75 13.0656 250.436 7.65753C229.121 2.24948 212.217 5.36012 202.706 7.65753C181.062 12.8859 154.641 3.04847 122.208 3.04847C119.023 3.04847 87.7759 4.58482 72.341 7.65753C65.2172 4.58482 53.9557 7.65753 53.9557 7.65753C53.9557 7.65753 49.6712 11.0349 38.1468 7.65753C28.9628 3.04847 26.8912 3.04847 21.7621 3.04847Z" fill="white" stroke="white" stroke-width="2"/>
</svg>
