<svg width="1171" height="236" viewBox="0 0 1171 236" fill="none" xmlns="http://www.w3.org/2000/svg">
<path d="M84.1195 3.04847C63.5855 3.04847 64.1541 -1.56059 24.2285 3.04847C-15.6971 7.65753 3.69442 217.831 24.2285 228.892C44.7626 239.954 143.06 233.501 189.642 228.892C264.743 226.588 430.917 223.361 494.801 228.892C574.656 235.806 788.553 226.588 808.516 228.892C824.487 230.736 1082.07 240.553 1139.34 215.065C1196.62 189.577 1159.88 16.8756 1139.34 7.65753C1118.81 -1.56055 1084.93 13.0656 999.597 7.65753C914.266 2.24948 846.592 5.36012 808.516 7.65753C721.865 12.8859 616.091 3.04847 486.245 3.04847C473.495 3.04847 348.401 4.58482 286.608 7.65753C258.089 4.58482 213.004 7.65753 213.004 7.65753C213.004 7.65753 195.851 11.0349 149.715 7.65753C112.947 3.04847 104.654 3.04847 84.1195 3.04847Z" fill="white" stroke="white" stroke-width="2"/>
</svg>
