<svg width="207" height="66" viewBox="0 0 207 66" fill="none" xmlns="http://www.w3.org/2000/svg">
<path d="M15.5376 1.55336C11.9462 1.55336 12.0457 0.308305 5.06267 1.55336C-1.92033 2.79841 1.47125 59.5728 5.06267 62.5609C8.65409 65.549 25.8463 63.8059 33.9935 62.5609C47.1288 61.9384 76.1927 61.0668 87.366 62.5609C101.333 64.4285 138.743 61.9384 142.235 62.5609C145.028 63.0589 190.08 65.7108 200.097 58.8257C210.114 51.9407 203.688 5.2885 200.097 2.79841C196.505 0.308314 190.58 4.25929 175.655 2.79841C160.731 1.33752 148.894 2.1778 142.235 2.79841C127.08 4.21075 108.58 1.55336 85.8696 1.55336C83.6396 1.55336 61.7605 1.96837 50.953 2.79841C45.9649 1.96837 38.0796 2.79841 38.0796 2.79841C38.0796 2.79841 35.0796 3.71075 27.0102 2.79841C20.5796 1.55336 19.1291 1.55336 15.5376 1.55336Z" stroke="white" stroke-width="2"/>
<path d="M37.8 45.36C37.4267 45.36 37.0267 45.2933 36.6 45.16C36.1733 45.0267 35.9067 44.8133 35.8 44.52C35.8 43.72 35.8133 43.0133 35.84 42.4C35.8667 41.7867 35.8933 41.28 35.92 40.88C36 39.6267 36.04 38.4133 36.04 37.24V35.6C36.04 34.32 36 33.2 35.92 32.24C35.8667 31.28 35.7333 30.3467 35.52 29.44V18.84H40.48C40.8267 18.9733 41.1467 19.0533 41.44 19.08C41.7333 19.1067 42.16 19.12 42.72 19.12C43.04 19.12 43.28 19.0267 43.44 18.84C44.5867 18.84 45.88 18.7867 47.32 18.68L48.64 18.6C48.9867 18.6 50.04 18.68 51.8 18.84C51.8533 18.8933 51.9067 18.9733 51.96 19.08C52.04 19.1867 52.0933 19.28 52.12 19.36C52.12 19.8133 52.0533 20.2133 51.92 20.56C51.8133 20.9333 51.76 21.28 51.76 21.6L51.8 22.04L50.84 22.28C49.72 22.2 48.5867 22.16 47.44 22.16C44.48 22.16 41.84 22.4533 39.52 23.04C39.3867 23.3333 39.2933 23.5867 39.24 23.8C39.2133 24.0133 39.2 24.28 39.2 24.6C39.2 24.8933 39.2533 25.3067 39.36 25.84C39.4667 26.4267 39.52 26.8533 39.52 27.12L39.24 29.44L39.72 29.92L41 30C41.6133 30 42.32 29.9333 43.12 29.8C43.4133 29.72 43.68 29.68 43.92 29.68C44.1067 29.8667 44.2267 29.96 44.28 29.96H44.24L44.32 30C44.5333 30 44.64 29.8667 44.64 29.6H49.12C49.3333 29.8933 49.4933 30.1733 49.6 30.44L50.08 30.2C49.9733 30.3067 49.9067 30.4533 49.88 30.64C49.8533 30.8 49.84 31 49.84 31.24C49.84 32.2267 49.8533 32.7867 49.88 32.92L49.36 33.36C47.2 33.36 44.44 33.4533 41.08 33.64L39.96 33.68L39.56 33.64C39.3467 33.64 39.24 33.72 39.24 33.88V41.32L39.52 41.76C39.5467 41.8133 40.04 41.88 41 41.96C41.9867 42.0133 42.84 42.04 43.56 42.04C43.88 42.04 44.4933 41.9333 45.4 41.72C46.4133 41.4533 47.1467 41.32 47.6 41.32C47.9467 41.32 48.36 41.36 48.84 41.44C49.32 41.4933 49.5733 41.5333 49.6 41.56L49.88 41.76C49.9067 41.6 50.0533 41.52 50.32 41.52L50.84 41.56L50.4 41.76L50.96 41.72H51.2C51.36 41.72 51.48 41.7467 51.56 41.8C51.6667 41.8267 51.7467 41.9067 51.8 42.04C51.88 42.0133 51.96 41.9733 52.04 41.92C52.1467 41.84 52.24 41.7867 52.32 41.76C52.56 41.92 52.7067 42.1333 52.76 42.4C52.84 42.64 52.88 42.9733 52.88 43.4C52.88 44.7067 52.6933 45.56 52.32 45.96L51.24 46C50.5467 46 50 45.96 49.6 45.88C49.2 45.8 48.7067 45.6267 48.12 45.36H37.8ZM47.6 19.8C47.5733 19.88 47.56 19.9733 47.56 20.08C47.56 20.2933 47.6133 20.44 47.72 20.52C47.8267 20.5733 47.9867 20.6 48.2 20.6C48.4933 20.6 48.76 20.5333 49 20.4C49.2667 20.2667 49.4 20.0667 49.4 19.8H47.6ZM37.52 21.8C37.7333 21.8 38.3067 21.5867 39.24 21.16C40.2 20.7333 40.6933 20.4533 40.72 20.32C40.2933 20.1333 39.6267 20.04 38.72 20.04C37.44 20.04 36.8 20.0533 36.8 20.08L36.52 21.28C36.7867 21.28 37.2133 21.12 37.8 20.8L37.24 21.8H37.52ZM42.92 20.32H43.2V20.08L42.92 20.32ZM41.72 20.8C41.56 20.8533 41.44 20.96 41.36 21.12C41.28 21.28 41.2267 21.3867 41.2 21.44C41.2 21.4933 41.24 21.52 41.32 21.52C41.6133 21.52 41.76 21.3733 41.76 21.08L41.72 20.8ZM37.8 22.28C37.5067 22.28 37.2533 22.3467 37.04 22.48C36.8267 22.6133 36.72 22.8133 36.72 23.08C36.96 23.08 37.1867 23 37.4 22.84C37.64 22.68 37.8267 22.4933 37.96 22.28H37.8ZM37.8 24.28C37.6933 24.44 37.5467 24.56 37.36 24.64C37.1733 24.72 37.0267 24.8133 36.92 24.92C36.8133 25 36.76 25.1467 36.76 25.36L36.8 25.72C37.2533 25.3467 37.56 25.0267 37.72 24.76C37.9067 24.4933 38 24.12 38 23.64L37.96 23.04C37.8 23.2 37.56 23.3867 37.24 23.6C36.9467 23.8133 36.8 23.9467 36.8 24C36.8 24.2133 37.0133 24.32 37.44 24.32L37.8 24.28ZM38.36 25.44C37.9067 25.44 37.4533 25.8667 37 26.72C37.48 26.72 37.8 26.6933 37.96 26.64C38.1467 26.5867 38.2533 26.4933 38.28 26.36C38.3333 26.2 38.36 25.8933 38.36 25.44ZM37.52 27.24C37.3867 27.24 37.2267 27.2667 37.04 27.32C36.88 27.3733 36.8 27.4133 36.8 27.44V29.04C37.0667 29.04 37.3867 28.8667 37.76 28.52C38.1333 28.1733 38.32 27.84 38.32 27.52C38.32 27.4667 38.2267 27.4133 38.04 27.36C37.8533 27.28 37.68 27.24 37.52 27.24ZM38.52 28.92C38.2 28.92 37.8933 29.0267 37.6 29.24C37.3333 29.4267 37.2 29.6667 37.2 29.96C38.08 29.96 38.52 29.6133 38.52 28.92ZM36.96 30.88C36.96 31.0933 37 31.3067 37.08 31.52C37.16 31.7333 37.2133 31.88 37.24 31.96L38.52 30.68V30.36C38.0933 30.36 37.72 30.3867 37.4 30.44C37.1067 30.4933 36.96 30.64 36.96 30.88ZM47.88 30.92C47.6133 31 47.36 31.16 47.12 31.4C46.9067 31.6133 46.7467 31.8533 46.64 32.12H48.64C48.3467 31.7733 48.0933 31.3733 47.88 30.92ZM43.6 31.12C43.12 31.0933 42.6667 31.24 42.24 31.56C41.84 31.8533 41.64 32.2133 41.64 32.64C42.0667 32.64 42.5333 32.4933 43.04 32.2C43.5733 31.88 43.9467 31.5333 44.16 31.16L43.6 31.12ZM44.92 32.4C45 32.4 45.0667 32.24 45.12 31.92C45.1733 31.6 45.2 31.3467 45.2 31.16H44.92L43.68 32.4H44.92ZM39.96 32.4C40.28 32.4 40.6267 32.32 41 32.16C41.3733 31.9733 41.56 31.7333 41.56 31.44H38.76C38.5733 31.44 38.48 31.6133 38.48 31.96H39.96V32.4ZM38.08 32.6C37.52 32.6 37.24 32.8 37.24 33.2C37.4533 33.2 37.64 33.16 37.8 33.08C37.9867 32.9733 38.08 32.8133 38.08 32.6ZM37.96 33.68C37.9333 33.7067 37.8 33.8133 37.56 34C37.32 34.1867 37.2 34.4133 37.2 34.68C37.52 34.68 37.7333 34.64 37.84 34.56C37.9467 34.4533 38 34.2533 38 33.96L37.96 33.68ZM37.24 35.64C37.2667 35.6933 37.3067 35.7733 37.36 35.88C37.4133 35.9867 37.4667 36.0667 37.52 36.12C37.7333 36.04 37.84 35.7733 37.84 35.32C37.7333 35.32 37.6 35.3467 37.44 35.4C37.3067 35.4267 37.24 35.5067 37.24 35.64ZM38 36.56C37.7333 36.56 37.56 36.6667 37.48 36.88C37.4267 37.0667 37.4 37.3467 37.4 37.72C37.8 37.72 38 37.3333 38 36.56ZM37.68 38.08C37.3067 38.08 37.12 38.4933 37.12 39.32C37.12 39.4533 37.12 39.56 37.12 39.64C37.1467 39.72 37.16 39.7733 37.16 39.8H37.52C37.5733 39.8 37.6533 39.6667 37.76 39.4C37.8933 39.1067 37.96 38.8933 37.96 38.76C37.96 38.6267 37.9333 38.48 37.88 38.32C37.8267 38.1333 37.7733 38.04 37.72 38.04L37.68 38.08ZM37.24 42.08C37.4533 42.08 37.6 42 37.68 41.84C37.7867 41.68 37.84 41.5067 37.84 41.32H37.24V42.08ZM37.24 43.6C37.24 43.7067 37.28 43.8 37.36 43.88C37.44 43.96 37.4933 44.0133 37.52 44.04C37.5733 43.9867 37.76 43.8 38.08 43.48C38.4267 43.1333 38.6 42.8933 38.6 42.76H37.96V42.32C37.8 42.4 37.64 42.6133 37.48 42.96C37.3467 43.3067 37.2667 43.4933 37.24 43.52V43.6ZM47.16 42.76C47.0533 42.76 46.9467 42.7733 46.84 42.8C46.76 42.8267 46.6933 42.8933 46.64 43H46.72C47.12 43 47.3467 42.92 47.4 42.76H47.16ZM46.64 43.76C47.0667 43.76 47.36 43.7467 47.52 43.72C47.7067 43.6667 47.9067 43.52 48.12 43.28V43.76L50.08 43H47.6L46.64 43.76ZM50.56 44.76C51.0133 44.76 51.3067 44.6 51.44 44.28C51.5733 43.96 51.64 43.5333 51.64 43H50.56V44.76ZM43.44 43.24C43.0933 43.24 42.76 43.3067 42.44 43.44C42.12 43.5733 41.88 43.7733 41.72 44.04L42.44 44.08C42.8667 44.08 43.1867 44.04 43.4 43.96C43.64 43.8533 43.8133 43.6267 43.92 43.28L43.44 43.24ZM45.76 43.24C45.7067 43.24 45.5867 43.3333 45.4 43.52C45.2133 43.68 45.0533 43.8533 44.92 44.04C45.0267 44.04 45.1867 43.96 45.4 43.8C45.6133 43.64 45.7733 43.4667 45.88 43.28L45.76 43.24ZM39.52 43.28C39.0667 43.4667 38.64 43.72 38.24 44.04C38.56 44.04 38.7867 44 38.92 43.92C39.08 43.8133 39.28 43.6 39.52 43.28ZM50.08 43.52C49.9467 43.52 49.7067 43.5867 49.36 43.72C49.04 43.8533 48.88 43.96 48.88 44.04V44.44C49.1733 44.44 49.4533 44.36 49.72 44.2C50.0133 44.0133 50.24 43.7867 50.4 43.52H50.08ZM40.6 43.76C40.52 43.76 40.4133 43.7867 40.28 43.84C40.1467 43.8933 40.04 43.96 39.96 44.04L40.24 44.08C40.48 44.08 40.64 43.9733 40.72 43.76H40.6ZM54.1431 44.24C54.6765 43.4667 55.2098 42.6133 55.7431 41.68C56.2765 40.72 56.6098 40.12 56.7431 39.88C57.7831 37.88 58.7298 36.2933 59.5831 35.12C59.4498 34.9333 59.1565 34.44 58.7031 33.64C58.2498 32.84 57.9698 32.3467 57.8631 32.16C57.6765 31.84 57.4098 31.4933 57.0631 31.12C56.7165 30.7467 56.5031 30.52 56.4231 30.44C55.6498 29.56 55.0765 28.8533 54.7031 28.32C54.3298 27.7867 54.1431 27.2 54.1431 26.56C54.1431 26 54.8365 25.72 56.2231 25.72C56.8631 25.72 57.2365 25.7333 57.3431 25.76L63.2631 31.68L66.2631 25.04L66.3831 25C66.4631 25 66.5831 25.08 66.7431 25.24C68.2098 25.3733 69.4365 25.6267 70.4231 26C70.5831 26.0533 70.6631 26.1733 70.6631 26.36C70.6898 26.5467 70.7831 26.6667 70.9431 26.72C70.7298 26.9867 70.5031 27.3467 70.2631 27.8C70.0231 28.2267 69.8498 28.52 69.7431 28.68C69.5298 29.1333 69.3031 29.5467 69.0631 29.92C68.8498 30.2667 68.6765 30.44 68.5431 30.44C68.4631 30.44 68.4098 30.5333 68.3831 30.72C68.3831 30.9067 68.3298 31 68.2231 31L67.9831 30.96C67.9031 31.3067 67.7431 31.6133 67.5031 31.88C67.2898 32.1467 66.9698 32.4667 66.5431 32.84C66.1165 33.1867 65.7831 33.5067 65.5431 33.8C65.3298 34.0933 65.2231 34.4133 65.2231 34.76C65.7831 35.8267 66.3698 36.84 66.9831 37.8C67.6231 38.76 68.1831 39.5867 68.6631 40.28C69.1698 40.9733 69.4898 41.4133 69.6231 41.6C70.3965 42.64 70.9431 43.4133 71.2631 43.92C71.5831 44.4267 71.7431 44.8267 71.7431 45.12C71.7431 45.5467 71.4765 45.76 70.9431 45.76C70.8631 45.76 70.6765 45.7067 70.3831 45.6C70.0898 45.52 69.8631 45.48 69.7031 45.48L68.2231 45.6C68.0098 45.6 67.6898 45.4667 67.2631 45.2C66.8365 44.96 66.6231 44.6933 66.6231 44.4C66.4365 44.1867 66.1031 43.7467 65.6231 43.08C65.1431 42.4133 64.8631 41.9867 64.7831 41.8C64.5431 41.32 64.3431 40.8933 64.1831 40.52C63.2498 38.5467 62.7298 37.56 62.6231 37.56C62.4631 37.56 62.2631 37.8133 62.0231 38.32C61.7831 38.8 61.4231 39.6133 60.9431 40.76C60.2765 42.36 59.7165 43.6 59.2631 44.48C58.8098 45.3333 58.3831 45.76 57.9831 45.76L54.1431 45.28V44.24ZM66.7031 26.72C66.7031 27.2 66.8765 27.5333 67.2231 27.72C67.5698 27.88 68.0765 28.04 68.7431 28.2C68.7698 28.0667 68.8631 27.8533 69.0231 27.56C69.1831 27.2667 69.2631 27.0933 69.2631 27.04L69.2231 26.96C69.0898 26.96 68.9298 27.0133 68.7431 27.12C68.5831 27.2267 68.4098 27.28 68.2231 27.28H68.0631C67.7165 27.28 67.5165 27.1867 67.4631 27L67.7431 26.72H66.7031ZM55.6231 27C55.6765 27.1067 55.8498 27.4533 56.1431 28.04C56.4365 28.6 56.7565 28.9867 57.1031 29.2C57.1565 29.1467 57.2898 29.0133 57.5031 28.8C57.7431 28.5867 57.8631 28.4533 57.8631 28.4C57.8631 28.2933 57.8098 28.2133 57.7031 28.16C57.5965 28.08 57.4498 28.0267 57.2631 28C57.0765 27.9467 56.9565 27.8667 56.9031 27.76C57.0631 27.6 57.1431 27.4667 57.1431 27.36C57.1431 27.0933 56.8098 26.96 56.1431 26.96L55.6231 27ZM64.9831 31.2C65.1431 31.2533 65.3165 31.3333 65.5031 31.44C65.7165 31.52 65.8765 31.6 65.9831 31.68H66.1031C66.1831 31.68 66.4765 31.4 66.9831 30.84C67.4898 30.2533 67.7431 29.9067 67.7431 29.8C67.7431 29.6667 67.6631 29.5733 67.5031 29.52C67.3698 29.4667 67.2498 29.4133 67.1431 29.36C67.0365 29.28 66.9831 29.1467 66.9831 28.96C67.0098 28.9067 67.0365 28.8667 67.0631 28.84C67.1165 28.7867 67.1565 28.7467 67.1831 28.72C67.3165 28.72 67.4898 28.76 67.7031 28.84C67.9431 28.92 68.1165 28.96 68.2231 28.96V28.72C68.0898 28.6667 67.8631 28.5733 67.5431 28.44C67.2498 28.3067 67.0098 28.2133 66.8231 28.16L66.7431 28.2L64.9831 31.2ZM57.6231 29.32C57.6231 29.5867 57.7831 29.72 58.1031 29.72C58.3431 29.72 58.6765 29.64 59.1031 29.48C58.9431 29.2667 58.7431 29.0933 58.5031 28.96C58.2898 28.8 58.1831 28.7067 58.1831 28.68C58.1298 28.68 58.0098 28.7733 57.8231 28.96C57.6631 29.12 57.5831 29.2267 57.5831 29.28C57.5831 29.3067 57.5965 29.32 57.6231 29.32ZM58.7831 31.32C58.7831 31.3733 58.8098 31.4533 58.8631 31.56C58.9431 31.64 59.0231 31.68 59.1031 31.68C59.3431 31.68 59.6898 31.6267 60.1431 31.52C60.5965 31.4133 60.8231 31.2667 60.8231 31.08C60.8231 31.0267 60.6898 30.8667 60.4231 30.6C60.1831 30.3067 60.0365 30.16 59.9831 30.16C59.8498 30.16 59.6098 30.3467 59.2631 30.72C58.9431 31.0667 58.7831 31.2667 58.7831 31.32ZM58.1031 30.76C58.3698 30.76 58.6098 30.5733 58.8231 30.2H58.1031V30.76ZM61.3031 31.68C60.6365 32.1333 60.1565 32.5333 59.8631 32.88C59.9165 32.88 60.2498 32.8933 60.8631 32.92C61.5031 32.92 61.8231 32.7067 61.8231 32.28C61.8231 32.2267 61.7565 32.12 61.6231 31.96C61.5165 31.8 61.4098 31.7067 61.3031 31.68ZM64.2631 33.56C64.2631 33.96 64.3831 34.16 64.6231 34.16C64.8365 34.16 65.1031 33.8933 65.4231 33.36C65.7431 32.8267 65.9031 32.3867 65.9031 32.04C65.3165 32.04 64.8898 32.1333 64.6231 32.32C64.3831 32.5067 64.2631 32.88 64.2631 33.44V33.56ZM60.2631 33.64C60.2631 33.7733 60.3031 33.8933 60.3831 34C60.4631 34.1067 60.5698 34.16 60.7031 34.16C60.9431 34.16 61.2098 34.0133 61.5031 33.72C61.7965 33.4267 61.9831 33.24 62.0631 33.16H61.9031C61.7165 33.16 61.3965 33.2 60.9431 33.28C60.4898 33.36 60.2631 33.48 60.2631 33.64ZM62.5831 34.36C62.5831 34.2533 62.5565 34.16 62.5031 34.08C62.4498 34 62.3831 33.9467 62.3031 33.92L61.7831 34.36H62.5831ZM63.2631 36.12C63.4231 36.28 63.5165 36.36 63.5431 36.36C63.8631 36.36 64.0631 36.3333 64.1431 36.28C64.2231 36.2267 64.2631 36.0933 64.2631 35.88C64.2631 35.56 64.1965 35.3067 64.0631 35.12C63.8231 35.1467 63.6231 35.2533 63.4631 35.44C63.3298 35.6 63.2631 35.7867 63.2631 36V36.12ZM60.0631 38.08C59.9298 38.2933 59.6498 38.5067 59.2231 38.72C58.7431 38.96 58.4498 39.16 58.3431 39.32C59.1431 39.32 59.7298 39.16 60.1031 38.84C60.4765 38.52 60.8231 38.0133 61.1431 37.32C61.3831 36.8667 61.5965 36.4933 61.7831 36.2C61.9965 35.9067 62.2498 35.6267 62.5431 35.36H61.6631C61.6631 35.6533 61.5565 35.9067 61.3431 36.12C61.1565 36.3067 60.8765 36.5067 60.5031 36.72C60.1031 36.9333 59.7965 37.1333 59.5831 37.32C59.3965 37.5067 59.3031 37.76 59.3031 38.08H60.0631ZM64.5031 38.08C64.5031 38.24 64.5965 38.3333 64.7831 38.36C64.9965 38.3867 65.3298 38.4 65.7831 38.4C65.7831 37.7067 65.6231 37.36 65.3031 37.36C65.0898 37.36 64.9031 37.44 64.7431 37.6C64.5831 37.7333 64.5031 37.8933 64.5031 38.08ZM65.5431 38.84C65.3565 38.8667 65.1965 38.9333 65.0631 39.04C64.9565 39.12 64.9031 39.2267 64.9031 39.36C65.1165 39.36 65.2765 39.3333 65.3831 39.28C65.4898 39.2 65.5431 39.0533 65.5431 38.84ZM65.7431 40.32L67.1831 40.56L67.2231 40.32C67.2231 40.08 67.1165 39.8267 66.9031 39.56C66.7165 39.2667 66.5031 39.0267 66.2631 38.84C65.8898 39.32 65.7031 39.7333 65.7031 40.08L65.7431 40.32ZM58.1031 40.32C58.3431 40.64 58.6765 40.8 59.1031 40.8C59.2631 40.8 59.3831 40.76 59.4631 40.68C59.5698 40.6 59.6231 40.48 59.6231 40.32H58.1031ZM65.9031 40.76C65.9031 41.24 66.0898 41.5867 66.4631 41.8C66.5965 41.7467 66.7031 41.6533 66.7831 41.52C66.8898 41.36 66.9565 41.2533 66.9831 41.2C66.9831 40.9067 66.6231 40.76 65.9031 40.76ZM67.1831 43.04C67.1831 43.8667 67.5298 44.28 68.2231 44.28C69.0231 44.28 69.4231 44.0267 69.4231 43.52H68.5031C68.5031 43.44 68.4898 43.3867 68.4631 43.36C68.4365 43.3333 68.4231 43.3067 68.4231 43.28C68.4231 43.2267 68.5298 43.1467 68.7431 43.04C68.6631 42.9067 68.5698 42.6533 68.4631 42.28C68.3565 41.96 68.2631 41.72 68.1831 41.56C68.1031 41.3733 67.9965 41.28 67.8631 41.28C67.7831 41.28 67.6098 41.4133 67.3431 41.68C67.1031 41.92 66.9831 42.08 66.9831 42.16C66.9831 42.48 67.1831 42.6667 67.5831 42.72C67.9831 42.7733 68.1965 42.8 68.2231 42.8C68.1698 42.9867 67.9565 43.08 67.5831 43.08L67.1831 43.04ZM56.7031 43.08C56.7031 43.48 56.8231 43.68 57.0631 43.68C57.2765 43.68 57.5431 43.4133 57.8631 42.88C58.1831 42.3467 58.3431 41.9067 58.3431 41.56C57.7565 41.56 57.3298 41.6533 57.0631 41.84C56.8231 42.0267 56.7031 42.4 56.7031 42.96V43.08ZM58.1431 44.24C58.3565 44.16 58.4631 44.0133 58.4631 43.8H58.1431V44.24ZM76.5347 53.84C78.108 53.68 78.8947 53.32 78.8947 52.76C78.708 52.76 78.5347 52.7867 78.3747 52.84C78.2147 52.8933 78.108 52.9333 78.0547 52.96C77.788 53.0933 77.5214 53.16 77.2547 53.16C76.908 53.16 76.7347 53.0533 76.7347 52.84V43.76C76.7347 43.4933 76.6947 43.2 76.6147 42.88C76.5614 42.5333 76.5347 42.32 76.5347 42.24C76.5347 41.84 76.5747 41.2667 76.6547 40.52L76.7347 38.8C76.7347 38.0533 76.6947 37.4267 76.6147 36.92C76.5347 35.72 76.4947 34.7867 76.4947 34.12C76.4947 32.7333 76.508 31.9067 76.5347 31.64L76.2547 31.44C76.308 31.2 76.3614 30.9067 76.4147 30.56C76.468 30.2133 76.508 29.92 76.5347 29.68C76.5347 29.6267 76.4414 29.1333 76.2547 28.2C76.2547 27.5333 76.3747 27.12 76.6147 26.96C76.8547 26.8 77.3614 26.72 78.1347 26.72C78.6147 26.72 78.9347 26.7333 79.0947 26.76C79.2547 26.7867 79.4014 26.88 79.5347 27.04C79.668 27.2 79.8147 27.4133 79.9747 27.68C80.8547 27.2267 81.7747 26.84 82.7347 26.52C83.7214 26.1733 84.6014 26 85.3747 26C88.068 26 90.1747 26.7867 91.6947 28.36C93.2414 29.9333 94.0147 32 94.0147 34.56V36.32C94.0147 38.0533 93.8547 39.2933 93.5347 40.04C93.348 40.4933 92.9347 41.1067 92.2947 41.88C91.6814 42.6533 91.028 43.3333 90.3347 43.92C89.6414 44.5067 89.0547 44.8 88.5747 44.8C89.2414 44.2133 89.5747 43.9067 89.5747 43.88C89.5747 43.8533 89.5614 43.84 89.5347 43.84C89.4814 43.84 89.148 44.04 88.5347 44.44L87.3747 45.2C87.2947 45.3067 87.2147 45.36 87.1347 45.36C87.0547 45.36 86.8947 45.3067 86.6547 45.2C86.4147 45.12 86.2147 45.08 86.0547 45.08C85.6547 45.08 85.2814 45.2933 84.9347 45.72C84.748 45.6933 84.0014 45.52 82.6947 45.2C82.588 44.9333 82.3347 44.7467 81.9347 44.64C81.5347 44.5067 81.2014 44.44 80.9347 44.44C80.8014 44.44 80.6014 44.48 80.3347 44.56C80.0947 44.6133 79.9747 44.6667 79.9747 44.72V52.64C80.1347 53.0667 80.2147 53.5333 80.2147 54.04C80.2147 54.2 80.0014 54.3333 79.5747 54.44C79.148 54.5733 78.4814 54.64 77.5747 54.64C77.1214 54.64 76.7747 54.6267 76.5347 54.6V53.84ZM79.4547 30.92C79.5614 31.08 79.7347 31.16 79.9747 31.16C80.5347 31.16 81.0414 30.9733 81.4947 30.6C81.9747 30.2 82.4814 29.6533 83.0147 28.96C83.3614 28.5333 83.628 28.2267 83.8147 28.04C84.028 27.8267 84.228 27.7067 84.4147 27.68C84.4147 27.7067 84.3747 27.7867 84.2947 27.92C84.2147 28.0533 84.1747 28.1467 84.1747 28.2C84.1747 28.2533 84.2014 28.3467 84.2547 28.48C84.3347 28.5867 84.388 28.6533 84.4147 28.68C84.708 28.52 84.9614 28.4 85.1747 28.32C85.708 28.1867 86.108 27.9067 86.3747 27.48C86.1614 27.3467 85.9614 27.2667 85.7747 27.24C85.6147 27.1867 85.388 27.16 85.0947 27.16C84.188 27.16 83.4547 27.2933 82.8947 27.56C82.3347 27.8267 81.7747 28.2933 81.2147 28.96L81.2947 29C81.3747 29 81.468 28.96 81.5747 28.88C81.708 28.8 81.8414 28.7333 81.9747 28.68L82.0147 28.8C82.0147 28.9867 81.8814 29.2 81.6147 29.44C81.348 29.6533 80.9614 29.9067 80.4547 30.2C79.868 30.5733 79.5347 30.8133 79.4547 30.92ZM87.7347 27.68C87.628 27.68 87.5214 27.7333 87.4147 27.84C87.3347 27.9467 87.2947 28.0667 87.2947 28.2H88.1347C88.1347 28.0667 88.0947 27.9467 88.0147 27.84C87.9614 27.7333 87.868 27.68 87.7347 27.68ZM77.2547 28.44C77.2814 28.5733 77.348 28.7733 77.4547 29.04C77.5614 29.28 77.6547 29.4133 77.7347 29.44C77.8947 29.3067 78.0547 29.1467 78.2147 28.96C78.4014 28.7733 78.4947 28.64 78.4947 28.56C78.4947 28.4 78.3614 28.2667 78.0947 28.16C77.8547 28.0267 77.668 27.96 77.5347 27.96C77.4814 27.9867 77.4147 28.0533 77.3347 28.16C77.2814 28.2667 77.2547 28.36 77.2547 28.44ZM78.7347 29.36C78.388 29.36 78.0547 29.5467 77.7347 29.92H78.7347V29.36ZM79.9347 36.24C79.9614 37.9467 80.4814 39.3867 81.4947 40.56C82.5347 41.7067 83.9214 42.28 85.6547 42.28C86.5347 42.28 87.2814 42.2 87.8947 42.04C88.508 41.88 88.9747 41.5333 89.2947 41C89.2147 40.9733 89.1614 40.92 89.1347 40.84C89.108 40.7333 89.0947 40.6267 89.0947 40.52C89.0947 40.3867 89.1214 40.2667 89.1747 40.16C89.2547 40.0267 89.3614 39.96 89.4947 39.96C89.4947 39.72 89.6014 39.4133 89.8147 39.04C89.8414 38.9867 89.8947 38.88 89.9747 38.72C90.0547 38.5333 90.0947 38.36 90.0947 38.2C90.0947 38.0667 90.0547 37.88 89.9747 37.64C89.8947 37.3733 89.8547 37.1733 89.8547 37.04C89.8547 36.96 89.8947 36.8533 89.9747 36.72C90.0814 36.5867 90.148 36.5067 90.1747 36.48C90.1747 36.4 90.028 36.2 89.7347 35.88C89.4414 35.56 89.2947 35.3467 89.2947 35.24C89.2947 35.1333 89.3347 35 89.4147 34.84C89.5214 34.6533 89.5747 34.5333 89.5747 34.48C89.5214 34.4 89.428 34.2133 89.2947 33.92C89.1614 33.6267 89.0947 33.44 89.0947 33.36V32.68C89.0947 32.44 89.0547 32.2667 88.9747 32.16C88.8947 32.0267 88.7614 31.8667 88.5747 31.68C88.228 31.44 88.0547 31.1333 88.0547 30.76C87.8147 30.76 87.4814 30.6533 87.0547 30.44C86.628 30.2 86.3347 30.0267 86.1747 29.92L84.6547 30.16V29.88C84.4947 29.88 84.308 29.9467 84.0947 30.08C83.908 30.2133 83.7214 30.36 83.5347 30.52C83.0547 30.9467 82.6814 31.16 82.4147 31.16C82.308 31.16 82.228 31.1467 82.1747 31.12L81.4547 32.16H81.2147C81.028 32.16 80.7614 32.72 80.4147 33.84C80.0947 34.9333 79.9347 35.7333 79.9347 36.24ZM91.2947 30.12C91.108 30.12 90.9614 30.16 90.8547 30.24C90.748 30.32 90.6547 30.4667 90.5747 30.68L91.0547 30.72H91.1747C91.548 30.72 91.7614 30.6133 91.8147 30.4C91.7347 30.2667 91.6547 30.1867 91.5747 30.16C91.5214 30.1333 91.428 30.12 91.2947 30.12ZM78.7347 32.88C78.7614 32.9867 78.8547 33.1333 79.0147 33.32C79.2014 33.48 79.348 33.5867 79.4547 33.64C79.6414 33.5333 79.788 33.2933 79.8947 32.92C80.028 32.52 80.1347 32.2667 80.2147 32.16H79.2147L79.4547 31.92L79.3347 31.88C79.1747 31.88 79.028 32.0133 78.8947 32.28C78.788 32.52 78.7347 32.72 78.7347 32.88ZM90.5747 32.88C90.5747 33.04 90.7347 33.12 91.0547 33.12C92.0414 33.12 92.5347 32.9067 92.5347 32.48C92.5347 32.4267 92.508 32.3333 92.4547 32.2C92.428 32.0667 92.3747 31.9733 92.2947 31.92C91.948 32.0533 91.5747 32.2267 91.1747 32.44C90.7747 32.6533 90.5747 32.8 90.5747 32.88ZM77.0147 33.36C77.068 33.4933 77.1614 33.6267 77.2947 33.76C77.4547 33.8667 77.5747 33.92 77.6547 33.92C77.708 33.92 77.7747 33.8533 77.8547 33.72C77.9347 33.5867 77.9747 33.4667 77.9747 33.36H77.0147ZM91.5747 37.04C91.6014 37.0933 91.748 37.1867 92.0147 37.32C92.2814 37.4267 92.4547 37.5067 92.5347 37.56H92.6547C92.788 37.56 92.8814 37.2533 92.9347 36.64C93.0147 36 93.0547 35.4933 93.0547 35.12C93.0547 34.9067 93.0014 34.68 92.8947 34.44C92.8147 34.2 92.6947 34.08 92.5347 34.08C92.2147 34.4 91.9347 34.6133 91.6947 34.72C91.4814 34.8 91.3347 34.8667 91.2547 34.92C91.1747 34.9733 91.1347 35.08 91.1347 35.24H92.4547C92.4547 35.2667 92.468 35.3333 92.4947 35.44C92.5214 35.52 92.5347 35.6267 92.5347 35.76C92.5347 35.9467 92.4147 36.1733 92.1747 36.44C91.9614 36.7067 91.7614 36.9067 91.5747 37.04ZM78.4947 36.32H78.7347V35.84L78.4947 36.32ZM78.2547 38.56C77.9347 38.72 77.7214 38.8933 77.6147 39.08C77.5347 39.24 77.4947 39.48 77.4947 39.8C77.8147 39.6133 78.0147 39.44 78.0947 39.28C78.2014 39.12 78.2547 38.88 78.2547 38.56ZM92.0547 40.04C92.4014 39.8 92.5747 39.4267 92.5747 38.92L92.5347 38.56C92.3747 38.6133 92.1614 38.72 91.8947 38.88C91.628 39.0133 91.428 39.16 91.2947 39.32L92.0547 40.04ZM78.2547 40.04C79.2414 40.04 79.7347 39.8667 79.7347 39.52C79.7347 39.44 79.708 39.32 79.6547 39.16C79.628 39 79.5614 38.92 79.4547 38.92C79.3747 38.92 79.2947 38.96 79.2147 39.04L78.2547 40.04ZM78.3747 40.8C78.1347 40.8 77.9214 40.84 77.7347 40.92C77.548 40.9733 77.4547 41.0533 77.4547 41.16L77.4947 41.28C77.548 41.2533 77.6947 41.2133 77.9347 41.16C78.2014 41.08 78.388 40.96 78.4947 40.8H78.3747ZM80.4547 41.76C80.5347 41.76 80.6014 41.7067 80.6547 41.6C80.708 41.4933 80.7347 41.4133 80.7347 41.36C80.6814 41.1733 80.5747 41.04 80.4147 40.96C80.2547 40.8533 80.108 40.8 79.9747 40.8L80.4547 41.76ZM91.8547 41.24C91.7747 41.2667 91.7347 41.32 91.7347 41.4C91.7347 41.5333 91.7614 41.6533 91.8147 41.76L92.2947 41.28L91.8547 41.24ZM78.4947 42.76C78.068 42.9733 77.8147 43.3867 77.7347 44L78.4147 44.04C78.8147 44.04 79.0147 43.8933 79.0147 43.6C79.0147 43.4667 78.9614 43.32 78.8547 43.16C78.748 42.9733 78.628 42.84 78.4947 42.76ZM87.0947 44.24C87.3347 44.1067 87.4547 43.9467 87.4547 43.76H86.6147L87.0947 44.24ZM85.8947 44.44C85.7347 44.28 85.548 44.1333 85.3347 44C85.1214 43.8667 84.9214 43.8 84.7347 43.8C84.3614 43.8 84.1347 44.0133 84.0547 44.44H85.8947ZM82.9347 43.88C82.348 43.88 82.028 44 81.9747 44.24H82.9347V43.88ZM77.7347 44.96C77.868 45.04 77.9747 45.16 78.0547 45.32C78.1614 45.5067 78.2547 45.64 78.3347 45.72C78.4147 45.8267 78.548 45.8933 78.7347 45.92C78.948 45.7067 79.0547 45.4133 79.0547 45.04C78.6014 45.04 78.3347 44.9333 78.2547 44.72C78.228 44.72 78.0547 44.8 77.7347 44.96ZM77.9747 51.88C78.0014 51.9067 78.0414 51.9467 78.0947 52C78.148 52.0533 78.2014 52.0933 78.2547 52.12C78.7614 52.12 79.0147 51.9733 79.0147 51.68C79.0147 51.36 78.988 51.0133 78.9347 50.64C78.908 50.2667 78.8947 49.9867 78.8947 49.8C78.788 48.9467 78.7347 48.3067 78.7347 47.88C78.7347 47.2667 78.4414 46.96 77.8547 46.96C77.748 46.96 77.628 47 77.4947 47.08C77.388 47.1867 77.308 47.2533 77.2547 47.28H77.9747C77.8414 47.4133 77.7214 47.56 77.6147 47.72C77.5347 47.88 77.4947 48 77.4947 48.08C77.548 48.2933 77.6814 48.6 77.8947 49C78.108 49.4267 78.228 49.6533 78.2547 49.68L77.9747 49.88V51.88ZM106.882 42.6C107.415 42.7867 107.682 42.96 107.682 43.12C107.682 43.28 107.469 43.88 107.042 44.92C106.802 45.4 106.682 45.68 106.682 45.76L106.162 45.96V45.64C105.842 45.64 105.549 45.6533 105.282 45.68C105.015 45.7067 104.762 45.72 104.522 45.72C104.149 45.72 103.855 45.64 103.642 45.48C103.455 45.3467 103.362 45.0533 103.362 44.6C102.669 44.6 102.149 44.3467 101.802 43.84C101.455 43.3333 101.095 42.5733 100.722 41.56C100.535 39.16 100.402 36.7067 100.322 34.2C100.269 31.6667 100.242 28.6933 100.242 25.28V22.72C100.242 20.4 100.335 18.4533 100.522 16.88C100.975 16.64 101.549 16.48 102.242 16.4C102.349 16.3733 102.589 16.3333 102.962 16.28C103.335 16.2 103.669 16.08 103.962 15.92L104.082 15.88C104.322 15.88 104.442 16.0267 104.442 16.32C104.442 18.4533 104.362 21.68 104.202 26C104.095 28.1067 104.015 30.2533 103.962 32.44C103.962 33.0267 103.909 33.8267 103.802 34.84C103.775 35.0533 103.749 35.3333 103.722 35.68C103.695 36.0267 103.682 36.44 103.682 36.92C103.682 38.6533 103.895 40.04 104.322 41.08C104.749 42.0933 105.602 42.6 106.882 42.6ZM103.002 17.68C102.309 17.68 101.855 17.8533 101.642 18.2C101.429 18.52 101.322 19.0667 101.322 19.84H101.882C101.882 19.8933 101.895 19.9333 101.922 19.96C101.949 19.9867 101.962 20.0133 101.962 20.04C101.962 20.0933 101.895 20.16 101.762 20.24C101.655 20.2933 101.562 20.32 101.482 20.32V21.8C101.562 21.6933 101.722 21.48 101.962 21.16C102.229 20.8133 102.402 20.6267 102.482 20.6C102.455 20.68 102.402 20.8533 102.322 21.12C102.242 21.36 102.122 21.5867 101.962 21.8C101.989 21.8 102.042 21.8133 102.122 21.84C102.202 21.84 102.295 21.84 102.402 21.84C102.802 21.84 103.002 21.76 103.002 21.6V17.68ZM101.482 30C101.562 30.1333 101.815 30.2 102.242 30.2C102.162 30.3067 102.055 30.4 101.922 30.48C101.789 30.5333 101.682 30.6 101.602 30.68C101.522 30.76 101.482 30.88 101.482 31.04C101.482 31.2533 101.535 31.4667 101.642 31.68C101.749 31.8933 101.802 32.1467 101.802 32.44H102.722V31.16H102.242C102.562 30.7333 102.722 30.1333 102.722 29.36C102.722 29.2 102.682 28.9867 102.602 28.72C102.522 28.4533 102.482 28.24 102.482 28.08L102.722 27.08C102.909 26.4667 103.002 25.8533 103.002 25.24C102.975 25.16 102.935 25.08 102.882 25C102.829 24.8933 102.775 24.8133 102.722 24.76C102.722 25.1333 102.562 25.32 102.242 25.32L101.962 25.24C102.149 25.16 102.269 25.04 102.322 24.88C102.375 24.72 102.402 24.52 102.402 24.28H103.002V22.8C102.842 22.9867 102.615 23.2133 102.322 23.48C102.055 23.72 101.895 23.84 101.842 23.84L101.722 23.8C102.229 23.24 102.562 22.7467 102.722 22.32C102.429 22.32 102.109 22.36 101.762 22.44C101.415 22.4933 101.242 22.64 101.242 22.88C101.242 23.4933 101.322 23.92 101.482 24.16C101.642 24.4 101.722 24.5333 101.722 24.56C101.722 24.6133 101.642 24.8267 101.482 25.2C101.322 25.5467 101.242 25.8133 101.242 26C101.295 25.9733 101.362 25.9333 101.442 25.88C101.549 25.8 101.642 25.76 101.722 25.76C101.775 25.76 101.829 25.8 101.882 25.88C101.935 25.9333 101.962 25.9733 101.962 26C101.882 26.08 101.789 26.2133 101.682 26.4C101.575 26.5867 101.509 26.7333 101.482 26.84C101.482 27 101.549 27.1067 101.682 27.16C101.842 27.1867 101.935 27.2133 101.962 27.24C101.669 27.32 101.482 27.5333 101.402 27.88C101.349 28.2267 101.322 28.6133 101.322 29.04C101.535 29.04 101.709 28.9867 101.842 28.88C101.975 28.7467 102.069 28.68 102.122 28.68L102.242 28.72C102.162 28.9333 102.029 29.1733 101.842 29.44C101.682 29.7067 101.562 29.8933 101.482 30ZM102.762 32.88C102.389 32.88 102.122 32.9867 101.962 33.2C101.802 33.4133 101.722 33.7333 101.722 34.16C101.775 34.1067 101.909 34.0133 102.122 33.88C102.362 33.7467 102.522 33.6 102.602 33.44C102.709 33.28 102.762 33.0933 102.762 32.88ZM102.482 42.56C102.615 42.56 102.775 42.28 102.962 41.72C103.149 41.16 103.242 40.7733 103.242 40.56C103.242 40.2933 103.202 40.12 103.122 40.04C103.069 39.96 102.935 39.92 102.722 39.92V35.88L102.482 35.64C102.695 35.64 102.802 35.12 102.802 34.08C102.535 34.08 102.282 34.2267 102.042 34.52C101.802 34.7867 101.682 35.0667 101.682 35.36C101.682 35.3867 101.722 35.44 101.802 35.52C101.909 35.5733 101.962 35.6133 101.962 35.64L101.722 35.88V37.6C101.909 37.6533 102.002 37.8267 102.002 38.12C102.002 38.3067 101.962 38.6 101.882 39C101.775 39.2667 101.722 39.56 101.722 39.88C101.722 40.1733 101.855 40.4533 102.122 40.72C102.389 40.9867 102.522 41.2133 102.522 41.4C102.522 41.48 102.442 41.6267 102.282 41.84C102.122 42.0267 102.015 42.1867 101.962 42.32C101.989 42.32 102.069 42.36 102.202 42.44C102.335 42.52 102.429 42.56 102.482 42.56ZM105.682 44.28C105.709 44.2533 105.762 44.2 105.842 44.12C105.949 44.04 106.002 43.9467 106.002 43.84C106.002 43.7867 105.789 43.6533 105.362 43.44C104.935 43.2267 104.629 43.08 104.442 43C104.362 43 104.229 43.0533 104.042 43.16C103.855 43.24 103.655 43.28 103.442 43.28C103.522 43.2533 103.615 43.1733 103.722 43.04C103.855 42.9067 103.935 42.8267 103.962 42.8C103.962 42.6133 103.909 42.4267 103.802 42.24C103.722 42.0533 103.602 41.92 103.442 41.84C103.362 41.84 103.229 42 103.042 42.32C102.882 42.6133 102.775 42.84 102.722 43C102.722 43.56 103.055 44 103.722 44.32C104.389 44.64 105.002 44.8 105.562 44.8C105.722 44.8 105.855 44.6933 105.962 44.48L105.682 44.28ZM124.208 26.6C126.155 27.9067 127.541 29.3867 128.368 31.04C129.221 32.6933 129.648 34.72 129.648 37.12L129.608 38.44C129.555 38.5733 129.448 38.68 129.288 38.76C129.155 38.84 129.048 38.92 128.968 39C128.888 39.08 128.848 39.2267 128.848 39.44C128.848 39.5467 128.861 39.6533 128.888 39.76C128.915 39.84 128.981 39.9067 129.088 39.96C128.928 39.96 128.795 40.0667 128.688 40.28C128.608 40.4667 128.475 40.8133 128.288 41.32C128.075 42.0667 127.861 42.52 127.648 42.68C126.181 43.7733 124.621 44.56 122.968 45.04C121.315 45.52 119.488 45.76 117.488 45.76L114.368 43.8C113.915 43.8 113.541 43.6533 113.248 43.36C112.955 43.0667 112.661 42.6267 112.368 42.04C112.181 41.7467 111.981 41.4533 111.768 41.16C111.555 40.84 111.328 40.6 111.088 40.44C110.715 39.5333 110.461 38.6 110.328 37.64C110.195 36.6533 110.128 35.5467 110.128 34.32L111.648 30.08C111.675 30.0267 111.995 29.68 112.608 29.04C113.248 28.4 113.808 27.8533 114.288 27.4C115.008 26.76 115.901 26.2267 116.968 25.8C118.035 25.3733 119.048 25.16 120.008 25.16C120.701 25.16 121.408 25.2933 122.128 25.56C122.875 25.8267 123.568 26.1733 124.208 26.6ZM115.128 28.6C115.128 28.7067 115.008 28.84 114.768 29C114.555 29.1333 114.448 29.28 114.448 29.44H115.008C115.861 29.44 116.288 29.32 116.288 29.08L115.568 28.6C115.568 28.5467 115.595 28.4933 115.648 28.44C115.701 28.3867 115.755 28.36 115.808 28.36C115.995 28.36 116.221 28.4133 116.488 28.52C116.781 28.6 116.981 28.64 117.088 28.64C117.301 28.64 117.501 28.5733 117.688 28.44C117.875 28.3067 118.075 28.12 118.288 27.88C118.608 27.5067 118.928 27.2667 119.248 27.16H118.888H118.608C118.448 27.16 118.328 27.1467 118.248 27.12C118.168 27.0667 118.088 26.9867 118.008 26.88C117.768 26.88 117.515 26.9467 117.248 27.08C117.008 27.1867 116.715 27.3733 116.368 27.64C115.835 28.0133 115.395 28.2533 115.048 28.36C115.101 28.44 115.128 28.52 115.128 28.6ZM121.568 26.88C121.488 26.88 121.301 27.0133 121.008 27.28C120.741 27.5467 120.568 27.7467 120.488 27.88L121.488 28.08C122.555 28.2667 123.208 28.36 123.448 28.36C123.581 28.36 123.701 28.3467 123.808 28.32C123.915 28.2933 124.048 28.2267 124.208 28.12C123.941 27.7733 123.528 27.48 122.968 27.24C122.435 27 121.968 26.88 121.568 26.88ZM123.848 28.6C123.848 28.7867 123.968 28.9333 124.208 29.04C124.448 29.12 124.688 29.16 124.928 29.16V28.6H123.848ZM120.608 29.04C119.701 29.04 118.941 29.2 118.328 29.52C117.715 29.84 117.035 30.36 116.288 31.08C116.128 31.2133 116.021 31.4933 115.968 31.92C115.941 32.16 115.901 32.3467 115.848 32.48C115.795 32.6133 115.701 32.72 115.568 32.8C115.461 33.04 115.315 33.5733 115.128 34.4C114.941 35.2 114.835 35.7333 114.808 36C114.781 36.16 114.768 36.3733 114.768 36.64C114.768 38.88 115.928 40.56 118.248 41.68L120.128 41.76C121.728 41.76 122.955 41.5067 123.808 41C124.688 40.4933 125.288 39.7467 125.608 38.76C125.955 37.7733 126.128 36.48 126.128 34.88C126.128 34.4533 126.008 33.8267 125.768 33C125.555 32.1467 125.341 31.5067 125.128 31.08C124.408 30.92 123.755 30.3467 123.168 29.36C122.875 29.36 122.461 29.3067 121.928 29.2C121.341 29.0933 120.901 29.04 120.608 29.04ZM125.528 29.04C125.395 29.04 125.288 29.1067 125.208 29.24C125.155 29.3467 125.128 29.4667 125.128 29.6C125.128 30 125.301 30.2533 125.648 30.36C125.701 30.3333 125.821 30.2667 126.008 30.16C126.221 30.0533 126.355 29.9467 126.408 29.84C126.301 29.7333 126.128 29.5733 125.888 29.36C125.675 29.1467 125.555 29.04 125.528 29.04ZM113.928 29.6C113.848 29.6 113.688 29.7067 113.448 29.92C113.235 30.1333 113.115 30.3067 113.088 30.44C113.088 30.76 113.315 30.92 113.768 30.92C113.928 30.92 114.115 30.92 114.328 30.92C114.568 30.8933 114.728 30.8667 114.808 30.84L115.048 29.84L113.928 29.6ZM125.888 30.56V30.92C126.341 30.92 126.595 30.8 126.648 30.56H125.888ZM112.728 31.08C112.461 31.08 112.275 31.2533 112.168 31.6C112.061 31.9467 112.008 32.28 112.008 32.6C112.461 32.6 112.915 32.5067 113.368 32.32C113.821 32.1333 114.128 31.88 114.288 31.56C113.861 31.24 113.341 31.08 112.728 31.08ZM127.448 31.96C127.448 31.72 127.408 31.52 127.328 31.36C127.248 31.1733 127.115 31.08 126.928 31.08C126.555 31.08 126.368 31.2 126.368 31.44C126.368 31.7867 126.728 31.96 127.448 31.96ZM113.448 33.08C113.768 33.08 113.995 33.0267 114.128 32.92C114.288 32.8133 114.421 32.6133 114.528 32.32L114.408 32.28C114.248 32.28 114.048 32.3733 113.808 32.56C113.568 32.7467 113.448 32.92 113.448 33.08ZM126.888 32.88C127.021 32.88 127.141 32.8267 127.248 32.72C127.381 32.5867 127.448 32.4533 127.448 32.32H126.888V32.88ZM128.368 34.04C128.368 33.88 128.301 33.68 128.168 33.44C128.061 33.1733 127.928 33.04 127.768 33.04C127.341 33.04 127.128 33.2 127.128 33.52C127.128 33.6533 127.168 33.8133 127.248 34C127.355 34.16 127.408 34.28 127.408 34.36V34.4C127.408 34.48 127.368 34.56 127.288 34.64C127.235 34.72 127.181 34.76 127.128 34.76L127.288 34.8C127.341 34.8 127.448 34.7333 127.608 34.6C127.768 34.44 127.875 34.3467 127.928 34.32C128.035 34.32 128.128 34.2933 128.208 34.24C128.315 34.16 128.368 34.0933 128.368 34.04ZM112.448 33.52C112.021 33.52 111.701 33.6267 111.488 33.84C111.301 34.0533 111.208 34.3867 111.208 34.84C111.555 34.84 111.888 34.7467 112.208 34.56C112.528 34.3733 112.888 34.12 113.288 33.8C113.288 33.6133 113.088 33.52 112.688 33.52C112.635 33.52 112.595 33.5333 112.568 33.56C112.541 33.56 112.515 33.56 112.488 33.56C112.461 33.56 112.448 33.56 112.448 33.56C112.448 33.5333 112.448 33.52 112.448 33.52ZM113.568 35.48C113.728 35.48 113.808 35.2533 113.808 34.8C113.808 34.3467 113.808 34.0933 113.808 34.04C113.701 34.1467 113.541 34.2533 113.328 34.36C113.115 34.4667 112.968 34.5467 112.888 34.6C112.168 34.92 111.755 35.2133 111.648 35.48H113.568ZM128.488 36.32C128.488 35.28 128.368 34.76 128.128 34.76L127.128 35.8C127.235 35.9867 127.421 36.12 127.688 36.2C127.955 36.28 128.221 36.32 128.488 36.32ZM111.248 37.52C111.541 37.52 111.981 37.3867 112.568 37.12C113.155 36.8267 113.448 36.5467 113.448 36.28H111.648C111.381 36.28 111.248 36.6933 111.248 37.52ZM127.088 38.52C128.101 38.52 128.608 38.1733 128.608 37.48C128.608 37.2133 128.501 37.0533 128.288 37C128.101 36.92 127.821 36.88 127.448 36.88C127.448 37.1467 127.381 37.4133 127.248 37.68C127.141 37.9467 127.088 38.2267 127.088 38.52ZM113.928 36.92C113.821 36.92 113.568 37.0133 113.168 37.2C112.795 37.3867 112.528 37.56 112.368 37.72L113.568 38C113.675 38 113.755 37.8933 113.808 37.68C113.888 37.44 113.928 37.1867 113.928 36.92ZM112.088 39.72C112.141 39.6933 112.275 39.6133 112.488 39.48C112.728 39.32 112.915 39.16 113.048 39C113.208 38.8133 113.288 38.6267 113.288 38.44L112.848 38.4C112.715 38.4 112.501 38.4267 112.208 38.48C111.941 38.5067 111.808 38.5867 111.808 38.72L112.088 39.72ZM112.568 40.44C113.048 40.36 113.621 40.12 114.288 39.72C114.288 39.5067 114.248 39.32 114.168 39.16C114.115 39 114.035 38.92 113.928 38.92L113.808 38.96L112.568 40.2V40.44ZM127.048 40C127.368 40 127.635 39.92 127.848 39.76C128.061 39.5733 128.168 39.3067 128.168 38.96H127.048C127.048 39.1467 126.981 39.3333 126.848 39.52C126.741 39.7067 126.595 39.8533 126.408 39.96L127.048 40ZM113.088 41.2C113.435 41.8933 113.715 42.24 113.928 42.24C114.221 42.24 114.528 42.1333 114.848 41.92C115.168 41.68 115.328 41.4133 115.328 41.12C114.901 41.12 114.635 41.2267 114.528 41.44V40.2L113.088 40.92V41.04V41.2ZM125.288 41.76C125.768 41.76 126.235 41.6933 126.688 41.56C127.168 41.4 127.408 41.1067 127.408 40.68C127.408 40.52 127.181 40.44 126.728 40.44C126.381 40.44 126.048 40.5733 125.728 40.84C125.435 41.1067 125.288 41.4133 125.288 41.76ZM115.048 43.16C115.235 43.16 115.395 43.1333 115.528 43.08C115.661 43 115.795 42.8667 115.928 42.68V43.48C116.248 43.48 116.555 43.4133 116.848 43.28C117.141 43.1467 117.288 42.9467 117.288 42.68C117.288 42.4933 117.101 42.32 116.728 42.16C116.381 42 116.115 41.92 115.928 41.92H115.808L114.288 42.4C114.288 42.6133 114.355 42.8 114.488 42.96C114.648 43.0933 114.835 43.16 115.048 43.16ZM125.888 42.12C125.781 42.12 125.541 42.12 125.168 42.12C124.821 42.12 124.501 42.1733 124.208 42.28C123.941 42.36 123.688 42.4933 123.448 42.68C123.128 42.92 122.955 43.04 122.928 43.04H119.728L119.008 43.84C119.355 44 119.675 44.1067 119.968 44.16C120.261 44.1867 120.621 44.2 121.048 44.2C121.555 44.2 122.168 44.0667 122.888 43.8C123.635 43.5333 124.315 43.2533 124.928 42.96C125.568 42.64 125.888 42.4533 125.888 42.4V42.12ZM126.648 42.92H126.568C126.355 42.92 126.208 43 126.128 43.16L126.648 42.92ZM116.688 44.08C117.435 44.08 117.808 43.7467 117.808 43.08C117.515 43.08 117.248 43.1867 117.008 43.4C116.795 43.5867 116.688 43.8133 116.688 44.08ZM118.528 43.44C118.795 43.44 119.035 43.3467 119.248 43.16L118.888 43.12H118.728C118.461 43.12 118.301 43.2133 118.248 43.4L118.528 43.44ZM123.928 44.2C124.088 44.2 124.195 44.1867 124.248 44.16C124.328 44.1067 124.381 44 124.408 43.84L123.648 44.16L123.928 44.2ZM121.968 44.88L121.728 44.84C121.568 44.84 121.448 44.8667 121.368 44.92C121.288 44.9467 121.235 45.0267 121.208 45.16L121.968 44.88ZM138.617 26.16C138.937 26.16 139.097 26.2667 139.097 26.48C139.097 26.56 139.03 26.8 138.897 27.2C138.79 27.6 138.724 27.88 138.697 28.04L139.617 27.12C140.657 26.4533 141.63 25.9067 142.537 25.48C143.444 25.0533 144.337 24.84 145.217 24.84C145.297 24.9467 145.337 25.2667 145.337 25.8C145.337 26.0667 145.31 26.4933 145.257 27.08C145.204 27.72 145.177 28.2267 145.177 28.6C145.177 28.76 145.204 28.9733 145.257 29.24C145.257 29.2933 145.15 29.36 144.937 29.44C144.724 29.4933 144.564 29.5333 144.457 29.56C143.177 29.9333 142.084 30.3733 141.177 30.88C140.27 31.3867 139.75 32.1067 139.617 33.04L139.457 33.92C139.19 35.3867 139.057 36.2933 139.057 36.64C139.057 37.4667 139.15 38.4667 139.337 39.64C139.364 39.8267 139.417 40.2667 139.497 40.96C139.577 41.6267 139.617 42.2533 139.617 42.84C139.617 43 139.59 43.2533 139.537 43.6C139.484 43.9467 139.43 44.28 139.377 44.6L139.617 44.88C139.59 45.04 139.244 45.16 138.577 45.24C137.91 45.3467 137.43 45.4 137.137 45.4H137.017C136.91 45.4 136.83 45.3733 136.777 45.32C136.724 45.2933 136.684 45.2267 136.657 45.12C136.577 45.3067 136.417 45.44 136.177 45.52C135.964 45.6 135.75 45.64 135.537 45.64C135.404 45.6133 135.244 45.5733 135.057 45.52C134.897 45.4933 134.777 45.4533 134.697 45.4L134.417 42.88V26.16H138.617ZM142.537 27.24C142.964 27.24 143.177 27.5333 143.177 28.12C143.177 28.3067 143.164 28.48 143.137 28.64C143.11 28.7733 143.097 28.9067 143.097 29.04C143.47 28.9067 143.764 28.68 143.977 28.36C144.217 28.04 144.337 27.6667 144.337 27.24C144.337 27.0267 144.15 26.7867 143.777 26.52C143.404 26.2267 143.217 26.0267 143.217 25.92C143.217 25.8933 143.244 25.8533 143.297 25.8C142.95 26.1467 142.777 26.3333 142.777 26.36L142.817 26.56C142.63 26.7467 142.35 26.92 141.977 27.08C141.604 27.24 141.324 27.4133 141.137 27.6C140.95 27.7867 140.857 28.0933 140.857 28.52C141.017 28.4933 141.164 28.4133 141.297 28.28C141.457 28.12 141.59 27.9733 141.697 27.84C141.99 27.44 142.27 27.24 142.537 27.24ZM137.537 28.24C137.537 28.9067 137.07 29.7733 136.137 30.84C136.51 30.7067 136.897 30.5333 137.297 30.32C137.697 30.08 137.897 29.9067 137.897 29.8V27.36C137.657 27.3067 137.284 27.2533 136.777 27.2C136.27 27.1467 135.897 27.1067 135.657 27.08V27.88H135.817C135.817 28.0667 135.777 28.2533 135.697 28.44C135.644 28.6267 135.617 28.8 135.617 28.96C136.07 28.96 136.497 28.76 136.897 28.36L135.657 29.6V30.12C135.71 30.0667 136.004 29.7467 136.537 29.16C137.097 28.5467 137.43 28.24 137.537 28.24ZM136.137 35.52C136.457 35.4933 136.844 35.4 137.297 35.24C137.75 35.0533 138.03 34.9067 138.137 34.8C138.244 34.2933 138.31 33.96 138.337 33.8C138.657 32.4133 138.924 31.36 139.137 30.64C139.35 29.92 139.684 29.16 140.137 28.36C139.417 28.9467 138.67 29.68 137.897 30.56C137.15 31.44 136.564 32.2667 136.137 33.04H136.297L138.137 32.56V32.76L136.137 35.24V35.52ZM140.737 29.92C141.03 29.92 141.27 29.84 141.457 29.68C141.644 29.4933 141.737 29.2667 141.737 29L141.697 28.64L140.497 29.88L140.737 29.92ZM136.657 31.32C136.23 31.32 135.95 31.4 135.817 31.56C135.684 31.72 135.617 31.9733 135.617 32.32L135.657 32.76L136.657 31.32ZM136.417 33.76C135.804 33.76 135.497 34.1067 135.497 34.8H135.897L136.657 33.76H136.417ZM137.257 35.76C136.857 35.8133 136.484 35.8933 136.137 36C135.817 36.1067 135.657 36.1867 135.657 36.24V37.76L137.377 35.76H137.257ZM135.897 38.48C136.004 38.6133 136.137 38.68 136.297 38.68C136.75 38.68 137.164 38.5333 137.537 38.24C137.937 37.9467 138.137 37.5867 138.137 37.16V36.88C138.137 36.48 138.057 36.1867 137.897 36C137.79 36.16 137.497 36.5067 137.017 37.04C136.564 37.5733 136.19 38.0533 135.897 38.48ZM135.417 40.2C135.417 40.2267 135.497 40.48 135.657 40.96C135.79 40.8267 136.017 40.6133 136.337 40.32C136.657 40 136.91 39.7333 137.097 39.52C137.284 39.28 137.377 39.0933 137.377 38.96L137.177 38.92C136.697 38.92 136.284 39.0267 135.937 39.24C135.59 39.4267 135.417 39.7467 135.417 40.2ZM138.137 38.96C138.11 39.0133 137.844 39.36 137.337 40C136.964 40.4 136.657 40.8 136.417 41.2C137.19 41.2 137.71 41.12 137.977 40.96C138.244 40.7733 138.377 40.3467 138.377 39.68C138.377 39.36 138.297 39.12 138.137 38.96ZM135.657 42.44C135.657 42.5733 135.684 42.7467 135.737 42.96C135.79 43.1467 135.844 43.3067 135.897 43.44C136.27 43.2533 136.617 42.9733 136.937 42.6C137.257 42.2267 137.484 41.84 137.617 41.44C137.484 41.52 137.35 41.5867 137.217 41.64C137.084 41.6667 136.964 41.7067 136.857 41.76C136.057 42.08 135.657 42.3067 135.657 42.44ZM138.377 41.64C137.764 42.2267 137.27 42.8267 136.897 43.44H137.177C137.31 43.44 137.577 43.36 137.977 43.2C138.404 43.04 138.617 42.9333 138.617 42.88L138.377 41.64ZM138.617 43.6C138.244 43.6 137.844 43.6667 137.417 43.8C137.017 43.9333 136.764 44.1333 136.657 44.4H137.177C138.137 44.4 138.617 44.24 138.617 43.92V43.6ZM148.499 36.24C148.499 34.9067 148.739 33.44 149.219 31.84C149.699 30.24 150.285 28.8667 150.979 27.72L151.059 27.76C151.219 27.76 151.552 27.5867 152.059 27.24C152.539 26.92 152.845 26.76 152.979 26.76C153.165 26.7067 153.645 26.5867 154.419 26.4C155.219 26.2133 155.965 26.12 156.659 26.12V26.48C157.032 26.3467 157.365 26.2667 157.659 26.24C157.979 26.2133 158.299 26.2 158.619 26.2C159.445 26.2 160.245 26.28 161.019 26.44C161.819 26.6 162.219 26.88 162.219 27.28C162.885 27.28 163.405 27.52 163.779 28C164.179 28.4533 164.565 29.08 164.939 29.88C165.072 30.1733 165.205 30.44 165.339 30.68C165.499 30.92 165.645 31.08 165.779 31.16V34.6L165.059 35.12L165.259 35.36C164.539 35.92 162.965 36.2 160.539 36.2H158.459C157.125 36.2 156.245 36.1867 155.819 36.16C155.419 36.1333 154.619 36.0267 153.419 35.84C153.392 35.68 153.312 35.6 153.179 35.6C153.125 35.6 153.059 35.6133 152.979 35.64C152.899 35.6667 152.819 35.68 152.739 35.68C152.739 36.4533 152.832 37.3067 153.019 38.24C153.232 39.1733 153.539 39.8533 153.939 40.28C154.152 40.52 154.739 40.8133 155.699 41.16C156.179 41.32 156.499 41.44 156.659 41.52C157.139 41.8667 157.552 42.04 157.899 42.04C158.512 42.04 159.179 41.96 159.899 41.8C160.619 41.64 161.032 41.5467 161.139 41.52C162.419 41.1733 163.445 41 164.219 41C164.565 41 164.792 41.16 164.899 41.48C165.032 41.7733 165.099 42.16 165.099 42.64C165.099 43.1467 165.059 43.4667 164.979 43.6C164.899 43.7333 164.752 43.8267 164.539 43.88C164.325 43.9067 164.152 44.0133 164.019 44.2C163.859 44.2533 162.299 44.52 159.339 45C158.219 45 157.219 44.9733 156.339 44.92C155.485 44.8667 154.685 44.72 153.939 44.48C153.112 44.2133 152.272 43.5867 151.419 42.6C150.592 41.6133 149.899 40.52 149.339 39.32C148.779 38.12 148.499 37.0933 148.499 36.24ZM161.139 28.6C161.139 28.8133 161.379 29.1333 161.859 29.56C162.339 29.9867 162.659 30.2 162.819 30.2C162.979 30.2 163.192 30.1467 163.459 30.04C163.725 29.9333 163.859 29.8133 163.859 29.68C163.859 29.52 163.805 29.2933 163.699 29C163.592 28.68 163.539 28.4933 163.539 28.44C163.539 28.52 163.472 28.5867 163.339 28.64C163.232 28.6667 163.139 28.68 163.059 28.68C162.845 28.6533 162.592 28.5467 162.299 28.36C162.032 28.1733 161.899 27.96 161.899 27.72C161.125 27.72 160.739 27.5333 160.739 27.16C160.685 27.16 160.579 27.2533 160.419 27.44C160.259 27.6267 159.965 27.72 159.539 27.72C159.405 27.72 159.272 27.6667 159.139 27.56C159.005 27.4533 158.832 27.4 158.619 27.4L158.099 27.44C158.152 27.4667 158.272 27.64 158.459 27.96C158.672 28.28 158.845 28.4533 158.979 28.48C159.032 28.48 159.125 28.44 159.259 28.36C159.419 28.2533 159.552 28.2 159.659 28.2C159.765 28.2267 159.965 28.3067 160.259 28.44C160.552 28.5467 160.845 28.6 161.139 28.6ZM150.379 36.88C150.619 36.88 150.859 36.8267 151.099 36.72C151.365 36.5867 151.499 36.4133 151.499 36.2C151.499 36.1467 151.459 36.0667 151.379 35.96C151.299 35.8267 151.259 35.7067 151.259 35.6C151.312 35.4133 151.405 35.1867 151.539 34.92C151.672 34.6267 151.739 34.3333 151.739 34.04C151.739 33.8267 151.685 33.68 151.579 33.6C151.499 33.4933 151.365 33.4 151.179 33.32C151.019 33.24 150.939 33.1467 150.939 33.04C150.939 32.9333 151.019 32.6933 151.179 32.32C151.365 31.92 151.459 31.6533 151.459 31.52C151.459 31.2533 151.712 30.8133 152.219 30.2C152.512 29.8 152.739 29.48 152.899 29.24C153.059 29 153.139 28.76 153.139 28.52C153.245 28.52 153.392 28.5467 153.579 28.6C153.765 28.6533 153.952 28.68 154.139 28.68C154.219 28.68 154.272 28.6133 154.299 28.48C154.325 28.32 154.365 28.2267 154.419 28.2C154.632 28.12 155.059 28.08 155.699 28.08C156.312 28.0533 156.779 28.0267 157.099 28C157.419 27.9467 157.592 27.8533 157.619 27.72C157.325 27.5867 157.045 27.5067 156.779 27.48C156.512 27.4267 156.165 27.4 155.739 27.4C153.925 27.4 152.539 28.0133 151.579 29.24C150.645 30.4667 150.179 32.0133 150.179 33.88H151.459V34.12L149.979 35.6V36.36L150.459 36.08L149.979 36.84L150.379 36.88ZM152.699 32.2C152.832 32.4667 153.605 32.6533 155.019 32.76C156.459 32.84 157.659 32.88 158.619 32.88C159.099 32.88 159.739 32.8267 160.539 32.72C161.285 32.6133 161.899 32.56 162.379 32.56C162.379 32.4267 162.285 32.16 162.099 31.76C161.912 31.3333 161.765 31.12 161.659 31.12L161.579 31.16C161.392 30.6 160.792 30.1333 159.779 29.76C158.792 29.3867 157.952 29.2 157.259 29.2C156.192 29.2 155.259 29.4533 154.459 29.96C153.659 30.4667 153.072 31.2133 152.699 32.2ZM163.859 33.04C163.859 33.44 163.725 33.7067 163.459 33.84C163.192 33.9467 162.805 34 162.299 34C161.872 34.0267 161.552 34.08 161.339 34.16C161.125 34.24 161.019 34.4133 161.019 34.68C161.899 34.68 162.592 34.6533 163.099 34.6C163.605 34.5467 163.912 34.3867 164.019 34.12C164.152 34.3333 164.339 34.44 164.579 34.44C164.579 34.2267 164.525 34 164.419 33.76C164.339 33.4933 164.299 33.2933 164.299 33.16C164.299 33.0533 164.352 32.96 164.459 32.88C164.592 32.8 164.685 32.7067 164.739 32.6C164.819 32.4933 164.859 32.28 164.859 31.96C164.859 30.92 164.552 30.4 163.939 30.4C163.672 30.4 163.499 30.48 163.419 30.64C163.365 30.7733 163.339 31.04 163.339 31.44C163.632 32.32 163.805 32.8 163.859 32.88V33.04ZM153.019 33.52C152.779 33.52 152.565 33.6133 152.379 33.8C152.219 33.9867 152.139 34.2 152.139 34.44C152.485 34.44 152.712 34.3733 152.819 34.24C152.952 34.1067 153.019 33.8667 153.019 33.52ZM153.779 33.88C153.725 33.88 153.565 34 153.299 34.24C153.059 34.48 152.859 34.6933 152.699 34.88L153.539 34.72C153.592 34.72 153.765 34.6933 154.059 34.64C154.379 34.56 154.752 34.3867 155.179 34.12C155.099 34.0933 154.685 34.0133 153.939 33.88H153.779ZM155.179 34.6C155.712 34.7867 156.179 34.88 156.579 34.88C156.819 34.88 157.019 34.8 157.179 34.64C157.365 34.48 157.459 34.28 157.459 34.04C156.125 34.04 155.365 34.2267 155.179 34.6ZM158.979 34.36C158.605 34.36 158.232 34.4133 157.859 34.52C157.512 34.6 157.339 34.76 157.339 35L157.379 35.12C157.432 35.12 157.899 35.0933 158.779 35.04C159.685 34.96 160.205 34.7333 160.339 34.36H159.219H158.979ZM151.299 37.24C150.792 37.24 150.472 37.32 150.339 37.48C150.205 37.6133 150.139 37.9467 150.139 38.48C150.459 38.48 150.725 38.36 150.939 38.12C151.179 37.8533 151.299 37.56 151.299 37.24ZM151.459 37.8C151.405 37.88 151.259 38.0933 151.019 38.44C150.805 38.76 150.699 39.08 150.699 39.4C151.472 39.4 151.979 39.2933 152.219 39.08C152.139 38.8933 152.005 38.68 151.819 38.44C151.632 38.1733 151.512 37.96 151.459 37.8ZM150.979 40.04C151.112 40.12 151.219 40.28 151.299 40.52C151.379 40.7333 151.432 40.9067 151.459 41.04C152.072 40.72 152.379 40.2133 152.379 39.52C151.632 39.52 151.165 39.6933 150.979 40.04ZM152.979 42.28C153.299 41.8 153.459 41.4933 153.459 41.36L153.419 41.24L151.979 41.04L151.699 41.24L152.979 42.28ZM153.419 42.52C153.445 42.5733 153.485 42.6267 153.539 42.68C153.592 42.7067 153.645 42.7333 153.699 42.76C153.939 42.7067 154.205 42.5867 154.499 42.4C154.792 42.2133 154.939 42.08 154.939 42C154.939 41.8667 154.885 41.76 154.779 41.68C154.699 41.5733 154.632 41.52 154.579 41.52C154.339 41.52 154.085 41.64 153.819 41.88C153.552 42.0933 153.419 42.3067 153.419 42.52ZM154.419 43.24C155.005 43.3733 155.339 43.4667 155.419 43.52C155.552 43.6533 155.632 43.72 155.659 43.72C156.059 43.72 156.405 43.6 156.699 43.36C157.019 43.0933 157.179 42.7733 157.179 42.4C156.165 42.4 155.659 42.52 155.659 42.76C155.659 42.68 155.605 42.5733 155.499 42.44C155.419 42.3067 155.352 42.24 155.299 42.24C155.245 42.24 155.072 42.3733 154.779 42.64C154.512 42.88 154.379 43.04 154.379 43.12L154.419 43.24ZM157.139 43.52C157.272 43.6533 157.352 43.72 157.379 43.72C157.832 43.72 158.365 43.6667 158.979 43.56C159.592 43.4533 159.979 43.3867 160.139 43.36C161.259 43.1467 161.992 43.04 162.339 43.04L162.819 43.24C163.139 43.24 163.432 43.1733 163.699 43.04C163.965 42.9067 164.099 42.6933 164.099 42.4C163.565 42.4 162.845 42.5067 161.939 42.72C161.805 42.7467 161.579 42.8 161.259 42.88C160.939 42.96 160.632 43.0133 160.339 43.04C159.805 43.04 159.232 43.0667 158.619 43.12C158.032 43.1467 157.619 43.1867 157.379 43.24L157.139 43.52Z" fill="white"/>
</svg>
